<svg xmlns="http://www.w3.org/2000/svg" width="117.177" height="55.788"><path d="M52.312 31.647c.428-.392.785-.716 1.138-1.047q7.4-6.95 14.785-13.919a5.211 5.211 0 012.7-1.569 3.2 3.2 0 012.428.5c2.791 1.934 2.827 5.053.687 7-3.605 3.276-7.146 6.622-10.728 9.924-.347.32-.347.485-.031.834q6.238 6.887 12.438 13.81a4.049 4.049 0 01.477 5.363 4.664 4.664 0 01-4.859 1.942 3.688 3.688 0 01-1.962-1.149q-6.524-6.895-13.029-13.8c-.347-.369-.536-.349-.881-.033-.967.879-1.962 1.73-2.96 2.574a.688.688 0 00-.222.606c0 2.483.012 4.969 0 7.454a4.148 4.148 0 01-2.5 4.045 4.439 4.439 0 01-6.365-4.178c.049-9.808.018-19.616.018-29.424V4.593A4.241 4.241 0 0145.195.899 4.391 4.391 0 0149.971.54a4.106 4.106 0 012.328 3.953v27.154z" fill="#fbb11b"/><path d="M29.761 31.527a14.517 14.517 0 00-1.063-5.047 8.515 8.515 0 00-3.176-3.868 9.313 9.313 0 00-5.169-1.342 10.328 10.328 0 00-5.822 1.587 9.988 9.988 0 00-3.662 4.478 15.13 15.13 0 00-1.1 4.192z" fill="none"/><path d="M36.839 45.775a3.16 3.16 0 00-2.075-.936 5.221 5.221 0 00-3.013.855 17.347 17.347 0 01-5.006 1.83 24.374 24.374 0 01-4.763.53q-6.1 0-9.241-3.3a12.24 12.24 0 01-3-7.368h24.614a4.7 4.7 0 002.891-.773 2.635 2.635 0 001.018-2.238A25.765 25.765 0 0037 26.031a17.549 17.549 0 00-3.654-6.308 16.05 16.05 0 00-5.781-3.99 20.079 20.079 0 00-7.613-1.373 19.986 19.986 0 00-10.3 2.646 18.857 18.857 0 00-7.08 7.284A21.947 21.947 0 000 35.119a21.791 21.791 0 002.646 10.985 17.931 17.931 0 007.531 7.16 25.06 25.06 0 0011.642 2.526 30.67 30.67 0 006.879-.857 21.121 21.121 0 006.554-2.646 5.316 5.316 0 002.075-2.117 4.051 4.051 0 00.449-2.4 3.531 3.531 0 00-.937-1.995zM14.531 22.858a10.3 10.3 0 015.822-1.587 9.34 9.34 0 015.169 1.342A8.48 8.48 0 0128.7 26.49a14.517 14.517 0 011.063 5.047H9.767a15.13 15.13 0 011.1-4.192 10 10 0 013.664-4.487zM98.817 13.334h-1.626a.995.995 0 00-.993 1.075l.812 10.324a1 1 0 001.987 0l.812-10.324a1 1 0 00-.993-1.075zM93.503 14.883a1 1 0 00-1.308-.671l-1.528.557a1 1 0 00-.565 1.35l4.292 9.416a1 1 0 001.867-.679zM87.74 17.488a.995.995 0 00-1.452-.184l-1.246 1.044a1 1 0 00-.071 1.463l7.258 7.385a1 1 0 001.52-1.277zM91.745 27.773l-8.531-5.865a1 1 0 00-1.428.322l-.812 1.408a1 1 0 00.432 1.4l9.345 4.459a1 1 0 00.993-1.722zM90.494 30.202L80.47 27.609a1 1 0 00-1.232.785l-.281 1.6a.995.995 0 00.885 1.165l10.306.993a1 1 0 00.345-1.962zM105.444 14.77l-1.526-.557a1 1 0 00-1.3.671l-2.77 9.981a1 1 0 001.867.679l4.294-9.416a.994.994 0 00-.563-1.357zM111.075 18.347l-1.244-1.044a.995.995 0 00-1.452.184l-6.011 8.436a1 1 0 001.522 1.277l7.258-7.385a1 1 0 00-.073-1.467zM105.367 29.495l9.343-4.459a1 1 0 00.435-1.4l-.814-1.408a.995.995 0 00-1.426-.322l-8.533 5.865a1 1 0 00.995 1.722zM117.16 29.999l-.282-1.6a1 1 0 00-1.232-.785l-10.022 2.593a1 1 0 00.345 1.962l10.3-.993a1 1 0 00.887-1.177zM117.013 36.92a3.623 3.623 0 00-7.244.02 3.77 3.77 0 00.024.392 11.917 11.917 0 01-23.818 0 3.305 3.305 0 00.024-.392 3.623 3.623 0 00-7.244-.02v.016a19.131 19.131 0 0038.251 0v-.027z" fill="#fbb11b"/></svg>